<svg xmlns="http://www.w3.org/2000/svg" viewBox="0 0 32 32" id="checkout"><g><path d="M28.79 6.39A1 1 0 0 0 28 6H9.45L9 3.79A1 1 0 0 0 8 3H4A1 1 0 0 0 4 5H7.19L10 18.21s0 .06 0 .1l.06.14a.71.71 0 0 0 .12.18l.09.11a1.37 1.37 0 0 0 .2.13l.11.06A1 1 0 0 0 11 19H25a1 1 0 0 0 1-.74l3-11A1 1 0 0 0 28.79 6.39zM24.24 17H11.81L9.88 8H26.69zM25 22H12V21a1 1 0 0 0-2 0v2a1 1 0 0 0 1 1H25a1 1 0 0 0 0-2z"></path><circle cx="11" cy="27" r="2"></circle><circle cx="24" cy="27" r="2"></circle><path d="M15.29,12.71l2,2a1,1,0,0,0,1.42,0l3-3a1,1,0,0,0-1.42-1.42L18,12.59l-1.29-1.3a1,1,0,0,0-1.42,1.42Z"></path></g></svg>