<svg xmlns="http://www.w3.org/2000/svg" enable-background="new 0 0 32 32" viewBox="0 0 32 32" id="gear"><path d="M18,31h-4c-0.489,0-0.906-0.354-0.986-0.835l-0.446-2.675c-0.784-0.234-1.542-0.548-2.264-0.939l-2.208,1.577
		c-0.396,0.284-0.942,0.24-1.288-0.106l-2.828-2.828c-0.346-0.346-0.391-0.891-0.106-1.288l1.577-2.208
		c-0.391-0.721-0.705-1.479-0.939-2.264l-2.675-0.446C1.354,18.906,1,18.489,1,18v-4c0-0.489,0.354-0.906,0.836-0.986l2.675-0.446
		c0.234-0.785,0.549-1.542,0.939-2.264L3.873,8.096C3.589,7.698,3.634,7.153,3.979,6.808l2.828-2.828
		c0.346-0.347,0.892-0.392,1.288-0.106l2.208,1.577c0.722-0.391,1.479-0.705,2.264-0.939l0.446-2.675C13.094,1.354,13.511,1,14,1h4
		c0.489,0,0.906,0.354,0.986,0.835l0.446,2.675c0.784,0.234,1.542,0.548,2.264,0.939l2.208-1.577
		c0.396-0.286,0.942-0.241,1.288,0.106l2.828,2.828c0.346,0.346,0.391,0.891,0.106,1.288l-1.577,2.208
		c0.391,0.721,0.705,1.479,0.939,2.264l2.675,0.446C30.646,13.094,31,13.511,31,14v4c0,0.489-0.354,0.906-0.836,0.986l-2.675,0.446
		c-0.234,0.785-0.549,1.542-0.939,2.264l1.577,2.208c0.284,0.397,0.239,0.942-0.106,1.288l-2.828,2.828
		c-0.346,0.346-0.892,0.39-1.288,0.106l-2.208-1.577c-0.722,0.391-1.479,0.705-2.264,0.939l-0.446,2.675
		C18.906,30.646,18.489,31,18,31z M14.847,29h2.307l0.412-2.474c0.066-0.396,0.363-0.715,0.755-0.808
		c1.027-0.245,2.006-0.651,2.909-1.207c0.341-0.21,0.778-0.197,1.105,0.038l2.042,1.458l1.631-1.63l-1.459-2.043
		c-0.234-0.327-0.249-0.763-0.038-1.106c0.556-0.901,0.962-1.88,1.207-2.908c0.093-0.392,0.411-0.689,0.809-0.755L29,17.153v-2.306
		l-2.474-0.413c-0.397-0.066-0.716-0.363-0.809-0.755c-0.245-1.028-0.651-2.007-1.207-2.908c-0.211-0.343-0.196-0.779,0.038-1.106
		l1.459-2.043l-1.631-1.63l-2.042,1.458c-0.327,0.234-0.764,0.248-1.105,0.038c-0.903-0.556-1.882-0.962-2.909-1.207
		c-0.392-0.093-0.688-0.412-0.755-0.808L17.153,3h-2.307l-0.412,2.474c-0.066,0.396-0.363,0.715-0.755,0.808
		c-1.027,0.245-2.006,0.651-2.909,1.207c-0.343,0.209-0.779,0.196-1.105-0.038L7.623,5.993l-1.631,1.63l1.459,2.043
		c0.234,0.327,0.249,0.763,0.038,1.106c-0.556,0.901-0.962,1.88-1.207,2.908c-0.093,0.392-0.411,0.689-0.809,0.755L3,14.847v2.306
		l2.474,0.413c0.397,0.066,0.716,0.363,0.809,0.755c0.245,1.028,0.651,2.007,1.207,2.908c0.211,0.343,0.196,0.779-0.038,1.106
		l-1.459,2.043l1.631,1.63l2.042-1.458c0.326-0.234,0.764-0.248,1.105-0.038c0.903,0.556,1.882,0.962,2.909,1.207
		c0.392,0.093,0.688,0.412,0.755,0.808L14.847,29z M30,18h0.01H30z M16,22c-3.309,0-6-2.691-6-6s2.691-6,6-6s6,2.691,6,6
		S19.309,22,16,22z M16,12c-2.206,0-4,1.794-4,4s1.794,4,4,4s4-1.794,4-4S18.206,12,16,12z"></path></svg>